<svg xmlns="http://www.w3.org/2000/svg" width="45.001" height="45.001" viewBox="25.5 25.5 45.001 45.001"><path fill="#FFF" d="M69.9 67.008L58.29 55.396a18.324 18.324 0 0 0 4.028-11.487c0-10.168-8.242-18.41-18.41-18.41S25.5 33.742 25.5 43.91s8.242 18.408 18.41 18.408c4.346 0 8.338-1.51 11.486-4.03l11.612 11.613A2.045 2.045 0 0 0 69.9 67.01zm-25.99-8.78c-7.91 0-14.32-6.41-14.32-14.318 0-7.908 6.412-14.318 14.32-14.318 7.906 0 14.317 6.41 14.317 14.318 0 7.906-6.41 14.318-14.318 14.318z"/><path fill="#FFF" d="M50.046 41.864h-4.09v-4.09a2.045 2.045 0 0 0-4.09 0v4.09h-4.092a2.045 2.045 0 0 0 0 4.09h4.09v4.09a2.046 2.046 0 0 0 4.09 0v-4.09h4.092a2.046 2.046 0 0 0 0-4.09z"/></svg>